<mxfile host="app.diagrams.net" modified="2023-10-24T12:45:26.283Z" agent="Mozilla/5.0 (Macintosh; Intel Mac OS X 10_15_7) AppleWebKit/605.1.15 (KHTML, like Gecko) Version/17.0 Safari/605.1.15" version="22.0.6" etag="U7-gL9cnhD2gfD_pFPqw" type="github">
  <diagram name="Page-1" id="vQLAbWmgQshjkq32IVEz">
    <mxGraphModel>
      <root>
        <mxCell id="0" />
        <mxCell id="1" parent="0" />
      </root>
    </mxGraphModel>
  </diagram>
</mxfile>
